<svg xmlns="http://www.w3.org/2000/svg" width="67" height="67" viewBox="0 0 67 67"><defs><style>.a,.d{fill:none;}.a{stroke:#f55330;stroke-width:2px;}.b{fill:#f5532f;}.c{stroke:none;}</style></defs><g transform="translate(18393 12356.149)"><g class="a" transform="translate(-18393 -12356.149)"><circle class="c" cx="33.5" cy="33.5" r="33.5"/><circle class="d" cx="33.5" cy="33.5" r="32.5"/></g><g transform="translate(-18384.994 -12346.004)"><g transform="translate(2.632 0)"><g transform="translate(0)"><path class="b" d="M465.275,387.758l-2.98-2.98a.673.673,0,0,0-.951.951l2.98,2.98a.673.673,0,0,0,.951-.951Z" transform="translate(-420.014 -350.081)"/><path class="b" d="M19.523,106.342a.673.673,0,1,0,1.346,0V105.3a2.631,2.631,0,0,0-.246-5,2.63,2.63,0,0,0-2.232-4.01A2.63,2.63,0,0,0,16.1,92.375H14.8a2.63,2.63,0,0,0-2.295-3.918h-.033a.673.673,0,1,0,0,1.346h.033a1.286,1.286,0,0,1,0,2.573H9.427a1.286,1.286,0,0,1-.117-2.567.673.673,0,0,0-.12-1.34,2.645,2.645,0,0,0-.982.285L3.781,84.324a.673.673,0,0,0-.951.951l4.383,4.383a2.638,2.638,0,0,0,2.215,4.062H9.76a2.63,2.63,0,0,0,2.295,3.918h.037a2.63,2.63,0,0,0,2.295,3.918h.861a2.63,2.63,0,0,0,2.295,3.918h1.98v.866ZM10.768,95.007a1.288,1.288,0,0,1,1.286-1.286H16.1a1.286,1.286,0,1,1,0,2.573H12.054A1.288,1.288,0,0,1,10.768,95.007ZM13.1,98.925a1.288,1.288,0,0,1,1.286-1.286h4a1.286,1.286,0,0,1,0,2.573h-4A1.288,1.288,0,0,1,13.1,98.925Zm3.156,3.918a1.288,1.288,0,0,1,1.286-1.286h2.392a1.286,1.286,0,1,1,0,2.573H17.542A1.288,1.288,0,0,1,16.256,102.844Z" transform="translate(-2.632 -76.58)"/><path class="b" d="M120.36,28.239a2.983,2.983,0,0,0-.88-2.147l-3.9-3.9a6.9,6.9,0,0,0-2.495-1.591l-5.255-1.918-1.917-5.255a6.894,6.894,0,0,0-1.591-2.5l-3.243-3.243A3,3,0,0,0,96.1,8.853L87.919.21a.673.673,0,1,0-.977.925l16.326,17.24a.672.672,0,0,0,.258.169l9.1,3.319a5.54,5.54,0,0,1,2,1.278l3.9,3.9a1.66,1.66,0,0,1-.017,2.365,1.667,1.667,0,0,1-2.332-.019l-3.255-3.261a.673.673,0,0,0-1.149.475v11.54a1.286,1.286,0,1,1-2.573,0V34.084a.673.673,0,1,0-1.346,0V37.1a1.286,1.286,0,0,1-1.334,1.286,1.322,1.322,0,0,1-1.239-1.333v-4.31a.673.673,0,0,0-1.346,0v3.306a1.286,1.286,0,1,1-2.573,0V31.766a.673.673,0,1,0-1.346,0v2.173a1.286,1.286,0,0,1-1.334,1.286,1.322,1.322,0,0,1-1.239-1.333v-.907a.673.673,0,0,0-1.346,0v.907a2.678,2.678,0,0,0,2.537,2.677,2.613,2.613,0,0,0,1.388-.336,2.631,2.631,0,0,0,4.163,1.947,2.651,2.651,0,0,0,2.286,1.547,2.609,2.609,0,0,0,1.621-.485,2.63,2.63,0,0,0,3.249,1.391l5.1,5.1a.673.673,0,0,0,.951-.951l-4.918-4.918a2.62,2.62,0,0,0,.641-1.719V28.23l5.141,5.139a.673.673,0,1,0,.951-.951l-1.26-1.26a2.994,2.994,0,0,0,2.407-2.919ZM97.315,10.106a1.661,1.661,0,0,1,2.81-1.466l3.243,3.243a5.539,5.539,0,0,1,1.278,2l1.529,4.191-2.039-.744s-6.819-7.219-6.821-7.229Z" transform="translate(-79.211 0)"/></g></g></g></g></svg>