<svg xmlns="http://www.w3.org/2000/svg" width="26.25" height="26.25" viewBox="0 0 26.25 26.25"><defs><style>.a{fill:#fff;}</style></defs><g transform="translate(7.33 4.198)"><g transform="translate(0 0)"><rect class="a" width="0.776" height="0.847" transform="matrix(0.428, -0.904, 0.904, 0.428, 0, 0.701)"/></g></g><g transform="translate(1.694 5.64)"><path class="a" d="M37.285,106.576l-4.675,9.87a6.376,6.376,0,0,0-.61,2.712h.847a5.529,5.529,0,0,1,.528-2.35l4.675-9.87Z" transform="translate(-32 -106.576)"/></g><g transform="translate(0 0)"><g transform="translate(0 0)"><path class="a" d="M17.359,8.468A8.826,8.826,0,0,0,12.9,9.68L8.427.242a.424.424,0,0,0-.765,0L.773,14.786A8.028,8.028,0,0,0,8.061,26.25a7.98,7.98,0,0,0,4.527-1.4A8.887,8.887,0,1,0,17.359,8.468ZM8.028,25.4a7.181,7.181,0,0,1-6.49-10.256L8.044,1.412l4.137,8.733a8.863,8.863,0,0,0-.336,14.175A7.169,7.169,0,0,1,8.028,25.4Zm9.331,0A8.044,8.044,0,1,1,25.4,17.359,8.053,8.053,0,0,1,17.359,25.4Z" transform="translate(0 0)"/></g></g><g transform="translate(13.548 10.585)"><path class="a" d="M259.81,200c-2.1,0-3.81,1.33-3.81,2.964s1.71,2.964,3.81,2.964,3.81-1.33,3.81-2.964S261.911,200,259.81,200Zm0,5.081c-1.634,0-2.964-.95-2.964-2.117s1.329-2.117,2.964-2.117,2.964.95,2.964,2.117S261.445,205.081,259.81,205.081Z" transform="translate(-256 -200)"/></g><g transform="translate(15.952 12.517)"><path class="a" d="M303.964,236.52a3.6,3.6,0,0,1-2.268,0l-.272.8a4.439,4.439,0,0,0,2.813,0Z" transform="translate(-301.424 -236.52)"/></g><g transform="translate(19.639 18.383)"><path class="a" d="M372.834,347.352a3.592,3.592,0,0,1-1.754,1.438l.3.793a4.436,4.436,0,0,0,2.175-1.783Z" transform="translate(-371.08 -347.352)"/></g><g transform="translate(17.788 16.511)"><path class="a" d="M342.355,312.922a2.476,2.476,0,0,0-1.741-.926,3.98,3.98,0,0,0-2.947,1.052c-1.559,1.351-2.02,3.489-1.029,4.767a2.476,2.476,0,0,0,1.741.926c.1.01.2.015.307.015a4.109,4.109,0,0,0,2.64-1.067C342.885,316.338,343.347,314.2,342.355,312.922Zm-1.583,4.127a3.2,3.2,0,0,1-2.309.849,1.614,1.614,0,0,1-1.155-.6c-.72-.928-.31-2.547.914-3.608a3.309,3.309,0,0,1,2.092-.86c.073,0,.146,0,.217.011a1.614,1.614,0,0,1,1.155.6C342.407,314.37,342,315.988,340.772,317.049Z" transform="translate(-336.116 -311.98)"/></g><g transform="translate(12.606 18.383)"><path class="a" d="M239.679,348.213a3.5,3.5,0,0,1-.76-.861l-.719.448a4.432,4.432,0,0,0,2.175,1.783l.3-.793A3.505,3.505,0,0,1,239.679,348.213Z" transform="translate(-238.2 -347.352)"/></g><g transform="translate(10.167 16.511)"><path class="a" d="M197.323,313.056A3.984,3.984,0,0,0,194.376,312a2.475,2.475,0,0,0-1.741.926c-.992,1.278-.53,3.416,1.029,4.767a4.112,4.112,0,0,0,2.64,1.067,3.061,3.061,0,0,0,.307-.015,2.475,2.475,0,0,0,1.741-.926C199.343,316.545,198.882,314.406,197.323,313.056Zm.36,4.247a1.616,1.616,0,0,1-1.155.6,3.2,3.2,0,0,1-2.309-.849c-1.225-1.061-1.635-2.679-.915-3.608a1.616,1.616,0,0,1,1.155-.6c.071-.007.144-.011.217-.011a3.31,3.31,0,0,1,2.092.86C197.993,314.756,198.4,316.375,197.683,317.3Z" transform="translate(-192.112 -311.988)"/></g></svg>