<svg xmlns="http://www.w3.org/2000/svg" width="25.214" height="26.318" viewBox="0 0 25.214 26.318"><defs><style>.a{fill:#f5532f;}.b{fill:#2f61f5;}</style></defs><g transform="translate(-10.741)"><g transform="translate(10.741 0)"><path class="a" d="M161.506,405.071l0,0a.386.386,0,1,0,.544.547l0,0a.386.386,0,0,0-.544-.547Z" transform="translate(-153.644 -384.143)"/><path class="a" d="M222.732,381.062l0,0a.386.386,0,0,0,.545.545l0,0a.386.386,0,1,0-.545-.545Z" transform="translate(-211.723 -361.367)"/><path class="a" d="M182.421,232.909a1.4,1.4,0,1,0-1.4,1.4A1.4,1.4,0,0,0,182.421,232.909Zm-2.036,0a.632.632,0,1,1,.633.633A.633.633,0,0,1,180.385,232.909Z" transform="translate(-170.933 -219.606)"/><path class="a" d="M248.8,393.223a1.947,1.947,0,1,0,1.947,1.946A1.948,1.948,0,0,0,248.8,393.223Zm0,3.123a1.176,1.176,0,1,1,1.176-1.177A1.177,1.177,0,0,1,248.8,396.346Z" transform="translate(-234.714 -373.01)"/><path class="a" d="M88.883,422.137a1.335,1.335,0,1,0,1.335,1.334A1.336,1.336,0,0,0,88.883,422.137Zm0,1.9a.564.564,0,1,1,.564-.565A.565.565,0,0,1,88.883,424.035Z" transform="translate(-83.6 -400.438)"/><path class="a" d="M402.558,385.116l0,0a.385.385,0,1,0,.545.545l0,0a.386.386,0,0,0-.545-.545Z" transform="translate(-382.306 -365.213)"/><path class="a" d="M418.546,442.4l0,0a.386.386,0,0,0,.544.547l0,0a.386.386,0,0,0-.544-.547Z" transform="translate(-397.472 -419.556)"/><path class="a" d="M397.641,306.208a1.294,1.294,0,1,0-1.295-1.293A1.295,1.295,0,0,0,397.641,306.208Zm0-1.817a.523.523,0,1,1-.524.524A.524.524,0,0,1,397.641,304.391Z" transform="translate(-376.525 -288.013)"/><path class="b" d="M34.5,1.862H29.215A1.5,1.5,0,0,0,27.759,3.4a1.521,1.521,0,0,0,1.176,1.509V17.65l-4.04-5.32A6.14,6.14,0,0,1,23.837,9.1L23.822,3.07A1.539,1.539,0,0,0,23.67,0H17.98a1.539,1.539,0,0,0-.152,3.07V9.1a6.158,6.158,0,0,1-1.072,3.23l-1.288,1.7a.386.386,0,1,0,.614.466l1.288-1.7a6.97,6.97,0,0,0,1.211-3.551H19.89a.386.386,0,0,0,0-.771h-1.3l0-1.285h1.3a.386.386,0,0,0,0-.771h-1.3l0-1.285h1.3a.386.386,0,0,0,0-.771H18.6l0-1.285h4.451V9.1a6.922,6.922,0,0,0,1.23,3.695L27,16.379a5.379,5.379,0,0,0-2.761-.157,11.068,11.068,0,0,0-2.92,1.144c-2.026-1.455-5.04-1.138-7.053-.46l.754-.981a.386.386,0,1,0-.612-.47L12.069,18.5a6.862,6.862,0,0,0-1.233,2.948,5.2,5.2,0,0,0,.333,3.124,3.132,3.132,0,0,0,3.046,1.745H27.436a3.4,3.4,0,0,0,2.374-.839A2.92,2.92,0,0,0,34.779,23.4V10.5a.386.386,0,1,0-.771,0v2.478a2.11,2.11,0,0,1-1.937-.1,2.872,2.872,0,0,0-2.365-.283V11.109H31a.386.386,0,0,0,0-.771h-1.29V9.052H31a.386.386,0,0,0,0-.771h-1.29V7H31a.386.386,0,0,0,0-.771h-1.29V4.94h4.3V8.717a.386.386,0,1,0,.771,0V4.911A1.521,1.521,0,0,0,35.955,3.4,1.5,1.5,0,0,0,34.5,1.862ZM17.98,2.307a.768.768,0,1,1,0-1.536h5.69a.768.768,0,1,1,0,1.536Zm-5.3,16.664.622-.81c1.548-.891,5.023-1.655,7.236-.382l-.087.046a18.468,18.468,0,0,1-8.582,2.705,5.588,5.588,0,0,1,.809-1.559Zm14.756,6.576H14.214a2.4,2.4,0,0,1-2.354-1.315,4.6,4.6,0,0,1-.206-2.923,19.257,19.257,0,0,0,9.163-2.8c2.576-1.38,4.443-2.379,7.147-.857l.971,1.278V23.4a2.9,2.9,0,0,0,.4,1.474A2.591,2.591,0,0,1,27.436,25.547ZM31.643,13.52a2.694,2.694,0,0,0,1.482.417,2.944,2.944,0,0,0,.883-.133V23.4a2.151,2.151,0,1,1-4.3,0V13.424A2.112,2.112,0,0,1,31.643,13.52ZM34.5,4.169H29.215A.73.73,0,0,1,28.53,3.4a.731.731,0,0,1,.685-.768H34.5a.731.731,0,0,1,.685.768A.731.731,0,0,1,34.5,4.169Z" transform="translate(-10.741 0)"/></g></g></svg>