<?xml version="1.0"?>
<svg xmlns="http://www.w3.org/2000/svg" xmlns:xlink="http://www.w3.org/1999/xlink" xmlns:svgjs="http://svgjs.com/svgjs" version="1.1" width="512" height="512" x="0" y="0" viewBox="0 0 512 512" style="enable-background:new 0 0 512 512" xml:space="preserve" class=""><g><g xmlns="http://www.w3.org/2000/svg" id="Out_line" data-name="Out line"><path d="m448 304a101.47181 101.47181 0 0 0 -82.40918 42.40918l-10.58838 14.82422-68.30078 22.7666h-3.38818l58.34326-58.34326a7.99981 7.99981 0 0 0 -5.65674-13.65674h-17.77637a137.97866 137.97866 0 0 0 -97.53271 40h-43.24072a88.175 88.175 0 0 0 -62.75977 25.99609l-96.34717 96.34717 11.31348 11.31348 96.34717-96.34717a72.28025 72.28025 0 0 1 51.44629-21.30957h46.5498a7.99877 7.99877 0 0 0 5.65674-2.34326l1.65771-1.65772a122.08652 122.08652 0 0 1 85.36231-35.98974l-74.3335 74.334 11.31348 11.31348 13.65674-13.65676h20.68652a7.99683 7.99683 0 0 0 2.52979-.41064l72-24a7.99736 7.99736 0 0 0 3.98-2.93946l12.10056-16.9409a85.46774 85.46774 0 0 1 53.91016-34.28564l-45.94336 72.19678-108.21924 46.37986h-110.35791a7.99877 7.99877 0 0 0 -5.65674 2.34326l-40 40 11.31348 11.31348 37.65726-37.65674h108.686a7.99947 7.99947 0 0 0 3.15137-.647l112-48a8.00019 8.00019 0 0 0 3.59814-3.05811l56-88a8.00028 8.00028 0 0 0 -6.74951-12.29489z" fill="#ffffff" data-original="#000000" style="" class=""/><path d="m250.34082 309.6543a7.99945 7.99945 0 0 0 11.31836 0l143.95166-144.07178a87.09446 87.09446 0 0 0 -123.19584-123.14452l-26.415 26.41454-26.415-26.41454a87.09446 87.09446 0 0 0 -123.1958 123.14453zm-132.6123-255.90284a71.09552 71.09552 0 0 1 100.543 0l32.07178 32.07178a8 8 0 0 0 11.31348 0l32.07178-32.07178a71.09479 71.09479 0 0 1 100.564 100.52247l-138.29256 138.40771-138.29248-138.40771a71.182 71.182 0 0 1 .021-100.52247z" fill="#ffffff" data-original="#000000" style="" class=""/><path d="m168 64.92871v-16a55.035 55.035 0 0 0 -18.71191 3.24854l5.42382 15.05275a39.086 39.086 0 0 1 13.28809-2.30129z" fill="#ffffff" data-original="#000000" style="" class=""/><path d="m139.29541 130.56543a38.96587 38.96587 0 0 1 1.06055-54.186q.53247-.53247 1.082-1.042l-10.87596-11.73538q-.772.71557-1.51953 1.46387a54.91722 54.91722 0 0 0 -1.48828 76.36865z" fill="#ffffff" data-original="#000000" style="" class=""/><path d="m16 88h48v16h-48z" fill="#ffffff" data-original="#000000" style="" class=""/><path d="m39.36 16.095h16v48h-16z" transform="matrix(.259 -.966 .966 .259 -3.626 75.464)" fill="#ffffff" data-original="#000000" style="" class=""/><path d="m23.36 143.905h48v16h-48z" transform="matrix(.966 -.259 .259 .966 -37.698 17.431)" fill="#ffffff" data-original="#000000" style="" class=""/><path d="m446.542 88h48v16h-48z" fill="#ffffff" data-original="#000000" style="" class=""/><path d="m439.182 32.095h48v16h-48z" transform="matrix(.966 -.259 .259 .966 5.405 121.245)" fill="#ffffff" data-original="#000000" style="" class=""/><path d="m455.182 127.905h16v48h-16z" transform="matrix(.259 -.966 .966 .259 196.573 559.989)" fill="#ffffff" data-original="#000000" style="" class=""/></g></g></svg>
