<svg xmlns="http://www.w3.org/2000/svg" width="20.082" height="30" viewBox="0 0 20.082 30"><defs><style>.a{fill:#2f61f5;}.b{fill:#f5532f;}</style></defs><g transform="translate(-92.006 -11)"><path class="a" d="M318.511,297.551A2.545,2.545,0,1,0,321.056,295,2.545,2.545,0,0,0,318.511,297.551Zm4.355,0a1.81,1.81,0,1,1-1.81-1.816A1.81,1.81,0,0,1,322.866,297.551Z" transform="translate(-212.637 -266.612)"/><path class="b" d="M354.316,309.787a.367.367,0,0,0-.365.37l.008,1.186a.367.367,0,0,0,.193.321l.823.443a.367.367,0,0,0,.348-.647l-.631-.34-.006-.968a.367.367,0,0,0-.367-.365Z" transform="translate(-245.907 -280.494)"/><path class="a" d="M96.008,41h3.9a4.007,4.007,0,0,0,4-4V19.94a4,4,0,0,0-1.971-3.446l4.211.021a1.271,1.271,0,0,1,1.26,1.271v5.525h-.138a.367.367,0,0,0-.367.367V24.7h-.135a.367.367,0,0,0-.367.367V26.42a.367.367,0,0,0,.367.367h.518v.661a3.669,3.669,0,1,0,2.324.019v-.68h.536a.367.367,0,0,0,.367-.367V25.072a.367.367,0,0,0-.367-.367h-.153V23.678a.367.367,0,0,0-.367-.367h-.073l0-5.553a3.227,3.227,0,0,0-3.223-3.232h-5.917a1.05,1.05,0,0,0-.808-.38h-.263v-.57h1.252a.367.367,0,0,0,.367-.367v-1.84a.367.367,0,0,0-.367-.367H95.462a.367.367,0,0,0-.367.367v1.84a.367.367,0,0,0,.367.367h1.252v.57H96.45A1.054,1.054,0,0,0,95.4,15.2v.786a4.008,4.008,0,0,0-3.392,3.956V37a4.007,4.007,0,0,0,4,4Zm3.619-29.265h.6V12.84h-.6Zm-3.2,1.105h-.6V11.735h.6Zm10.705,13.213v-.614h.295v.614Zm4.218,4.885A2.934,2.934,0,1,1,108.418,28,2.934,2.934,0,0,1,111.352,30.938Zm-2.478-4.151v.51a3.586,3.586,0,0,0-.855-.007v-.5Zm-.71-.735v-.614h.584v.614Zm1.318-.614h.295v.614h-.295Zm-.225-.735h-1.62v-.659h1.62Zm-8.6-9.445h5.673a2.492,2.492,0,0,1,2.488,2.5l0,5.554h-.674V17.786a2.008,2.008,0,0,0-1.991-2.005l-5.492-.028Zm-3.494-3.525h1.728V12.84H97.164Zm1.444,1.84v.57h-1.16v-.57ZM96.132,15.2a.319.319,0,0,1,.318-.319h3.156a.319.319,0,0,1,.318.319v.74H96.132ZM92.741,19.94a3.271,3.271,0,0,1,3.267-3.267h3.9a3.271,3.271,0,0,1,3.267,3.267v.607H92.741Zm0,1.341h10.432v1.1H92.741Zm0,1.839h10.432v10.5H92.741Zm0,11.235h10.432v1.1H92.741Zm0,1.839h10.432V37a3.271,3.271,0,0,1-3.267,3.267h-3.9A3.271,3.271,0,0,1,92.741,37Z"/><path class="b" d="M122.389,254.4a.367.367,0,0,0-.367.367v5.459a.367.367,0,0,0,.735,0v-5.459A.367.367,0,0,0,122.389,254.4Z" transform="translate(-28.178 -228.498)"/><path class="b" d="M122.389,229.086a.367.367,0,0,0-.367.367v.315a.367.367,0,0,0,.735,0v-.315A.367.367,0,0,0,122.389,229.086Z" transform="translate(-28.178 -204.734)"/></g></svg>