<svg xmlns="http://www.w3.org/2000/svg" width="26.319" height="26.318" viewBox="0 0 26.319 26.318"><defs><style>.a{fill:#2f61f5;}.b{fill:#f5532f;}</style></defs><g transform="translate(-1.997 -2)"><path class="a" d="M27.878,22.177h-.535L26.549,19a.439.439,0,0,0-.425-.333H21.43L20.421,8.536a.445.445,0,0,0-.439-.395H17.35V7.264a5.264,5.264,0,1,0-10.527,0v.877H4.191a.445.445,0,0,0-.439.395L2,26.081a.454.454,0,0,0,.114.338.439.439,0,0,0,.325.145H16.57l.355,1.421a.439.439,0,0,0,.425.333h8.773a.439.439,0,0,0,.425-.333l.794-3.176h.535a.439.439,0,0,0,.439-.439V22.616A.439.439,0,0,0,27.878,22.177Zm-2.1-2.632.658,2.632h-9.4l.658-2.632ZM7.7,7.264a4.386,4.386,0,1,1,8.773,0v.877H7.7ZM2.919,25.686,4.586,9.018H6.823v1.755H6.385v.877H8.139v-.877H7.7V9.018h8.773v1.755h-.439v.877h1.755v-.877H17.35V9.018h2.237l.961,9.65h-3.2a.439.439,0,0,0-.425.333l-.794,3.176h-.1V19.984a.439.439,0,0,0-.439-.439h-.439V17.738a2.564,2.564,0,0,0,1.755-2.579,2.444,2.444,0,0,0-2.193-2.632,2.444,2.444,0,0,0-2.193,2.632,2.564,2.564,0,0,0,1.755,2.579v1.807h-.439a.439.439,0,0,0-.439.439v3.509a1.32,1.32,0,0,0,1.316,1.316,1.293,1.293,0,0,0,.566-.132.439.439,0,0,0,.311.132h.535l.219.877Zm11.8-8.773c-.724,0-1.316-.785-1.316-1.755s.592-1.755,1.316-1.755,1.316.785,1.316,1.755S15.442,16.914,14.719,16.914Zm.439,3.509a13.869,13.869,0,0,1,0,3.07.439.439,0,1,1-.877,0v-3.07S14.938,19.655,15.157,20.423Zm10.624,7.018H17.693l-.658-2.632h2.948v1.316a.439.439,0,0,0,.439.439h2.632a.439.439,0,0,0,.439-.439V24.809h2.948ZM20.86,25.686v-.877h1.755v.877Zm6.58-1.755h-11.4v-.877h11.4Z" transform="translate(0)"/><path class="b" d="M17.509,26v2.632a1.32,1.32,0,0,1-.877,1.237V26h-.877v3.869a1.32,1.32,0,0,1-.877-1.237V26H14v2.632a2.2,2.2,0,0,0,1.755,2.149v2.237h-.439a.439.439,0,0,0-.439.439v3.509a1.316,1.316,0,1,0,2.632,0V33.457a.439.439,0,0,0-.439-.439h-.439V30.781a2.2,2.2,0,0,0,1.755-2.149V26Zm-.877,10.966a.439.439,0,1,1-.877,0V33.9h.877Z" transform="translate(-6.738 -13.473)"/></g></svg>