<?xml version="1.0"?>
<svg xmlns="http://www.w3.org/2000/svg" xmlns:xlink="http://www.w3.org/1999/xlink" xmlns:svgjs="http://svgjs.com/svgjs" version="1.1" width="512" height="512" x="0" y="0" viewBox="0 0 64 64" style="enable-background:new 0 0 512 512" xml:space="preserve" class=""><g><g xmlns="http://www.w3.org/2000/svg" id="Vaccination"><path d="m49.21 44.02-13.62-2.92-3.46-4.8a12 12 0 0 0 5.82-9.3h1.05a3.009 3.009 0 0 0 3-3v-2a3.009 3.009 0 0 0 -3-3h-1v-2.55a8.982 8.982 0 0 0 4-7.45v-6a1 1 0 0 0 -1-1h-22a9.014 9.014 0 0 0 -9 9v2a5.017 5.017 0 0 0 4 4.9v1.1h-1a3.009 3.009 0 0 0 -3 3v2a3.009 3.009 0 0 0 3 3h1.05a12 12 0 0 0 5.82 9.3l-3.46 4.8-13.62 2.92a1 1 0 0 0 -.79.98v12a1.008 1.008 0 0 0 .83.99l23 4a1.45 1.45 0 0 0 .34 0l23-4a1.008 1.008 0 0 0 .83-.99v-12a1 1 0 0 0 -.79-.98zm-35.21-19.02h-1a1 1 0 0 1 -1-1v-2a1 1 0 0 1 1-1h1zm25-4a1 1 0 0 1 1 1v2a1 1 0 0 1 -1 1h-1v-4zm-25-6v.82a3.01 3.01 0 0 1 -2-2.82v-2a7.008 7.008 0 0 1 7-7h21v5a6.962 6.962 0 0 1 -2.38 5.23.907.907 0 0 0 -.36-.2l-15-4a1.055 1.055 0 0 0 -.76.1l-7 4a1 1 0 0 0 -.5.87zm2 11v-10.42l6.14-3.51 13.86 3.7v10.23a10 10 0 0 1 -20 0zm5.7 11.19a11.819 11.819 0 0 0 8.6 0l3.44 4.77-.78.95a9 9 0 0 1 -13.93 0l-.77-.95zm-5.7 21.06-6-1.05v-4.2h6zm32-2.09-22 3.82-8-1.39v-6.59a1 1 0 0 0 -1-1h-8a1 1 0 0 0 -1 1v4.85l-4-.69v-10.35l12.61-2.7.88 1.06a10.983 10.983 0 0 0 17.02 0l.88-1.06 12.61 2.7z" fill="#ffffff" data-original="#000000" style=""/><path d="m59.96 16.62-2.59-1.5 1-1.73 1.73 1 1-1.74-5.2-3-1 1.74 1.73 1-1 1.73-2.59-1.5a.969.969 0 0 0 -.76-.1.983.983 0 0 0 -.61.46l-8 13.86a1 1 0 0 0 .37 1.37l.86.5-1.5 2.59a1.013 1.013 0 0 0 -.1.76 1 1 0 0 0 .47.61l.86.5-2.5 4.33 1.74 1 2.5-4.33.86.5a1.013 1.013 0 0 0 1.37-.37l1.5-2.59.86.5a1.128 1.128 0 0 0 .5.13 1.09 1.09 0 0 0 .26-.03 1 1 0 0 0 .61-.47l8-13.86a.988.988 0 0 0 -.37-1.36zm-12.59 15.82-1.74-1 1-1.73 1.74 1zm9.73-12.86-2.6-1.5-1 1.73 2.6 1.5-1 1.74-2.6-1.5-1 1.73 2.6 1.5-1 1.73-2.6-1.5-1 1.73 2.6 1.5-1 1.73-5.2-3 7-12.12 5.2 3z" fill="#ffffff" data-original="#000000" style=""/><path d="m49.707 36.293-1.414 1.414 4 4a1 1 0 0 0 .707.293h9v-2h-8.586z" fill="#ffffff" data-original="#000000" style=""/><path d="m52 44h2v2h-2z" fill="#ffffff" data-original="#000000" style=""/><path d="m56 44h6v2h-6z" fill="#ffffff" data-original="#000000" style=""/><path d="m52 48h10v2h-10z" fill="#ffffff" data-original="#000000" style=""/><path d="m34.555 20.832-1.11-1.664a4.4 4.4 0 0 1 -4.89 0l-1.11 1.664a6.391 6.391 0 0 0 7.11 0z" fill="#ffffff" data-original="#000000" style=""/><path d="m18.555 19.168-1.11 1.664a6.391 6.391 0 0 0 7.11 0l-1.11-1.664a4.4 4.4 0 0 1 -4.89 0z" fill="#ffffff" data-original="#000000" style=""/><path d="m56 36h6v2h-6z" fill="#ffffff" data-original="#000000" style=""/></g></g></svg>
