<svg xmlns="http://www.w3.org/2000/svg" width="28.042" height="30" viewBox="0 0 28.042 30"><defs><style>.a{fill:#2f61f5;}.b{fill:#f5532f;}</style></defs><g transform="translate(0)"><path class="a" d="M236.739,137.038a.439.439,0,0,0-.439.439v1.258a.439.439,0,1,0,.879,0v-1.258A.439.439,0,0,0,236.739,137.038Z" transform="translate(-223.433 -129.008)"/><path class="a" d="M320.329,137.038a.439.439,0,0,0-.439.439v1.258a.439.439,0,1,0,.879,0v-1.258A.439.439,0,0,0,320.329,137.038Z" transform="translate(-302.126 -129.008)"/><path class="a" d="M191.022,84.892h-3.628a4.19,4.19,0,0,0-4.185,4.185v3.046a4.772,4.772,0,0,0,4.767,4.767h1.6a.439.439,0,1,0,0-.879h-1.6a3.892,3.892,0,0,1-3.888-3.888v-.165h3.254a1.02,1.02,0,0,0,.8-.39l.527-.668a.146.146,0,0,1,.115-.056h.838a.146.146,0,0,1,.115.056l.527.667a1.02,1.02,0,0,0,.8.39h3.254v.165a3.9,3.9,0,0,1-2.825,3.74.439.439,0,1,0,.24.846,4.784,4.784,0,0,0,3.464-4.585V89.077A4.19,4.19,0,0,0,191.022,84.892Zm-3.628.879h3.628a3.289,3.289,0,0,1,2.006.68h-7.639A3.289,3.289,0,0,1,187.394,85.771Zm6.934,5.309h-3.254a.146.146,0,0,1-.115-.056l-.527-.667a1.02,1.02,0,0,0-.8-.39h-.838a1.02,1.02,0,0,0-.8.39l-.527.668a.146.146,0,0,1-.115.056h-3.254v-2a3.286,3.286,0,0,1,.5-1.747h9.238a3.286,3.286,0,0,1,.5,1.747Z" transform="translate(-173.453 -79.918)"/><path class="a" d="M237.925,212.254a.439.439,0,1,0,0-.879h-5.391a.439.439,0,0,0,0,.879Z" transform="translate(-219.475 -198.99)"/><path class="a" d="M236.915,238.379h4.877a.439.439,0,1,0,0-.879h-4.877a.439.439,0,1,0,0,.879Z" transform="translate(-223.599 -223.584)"/><path class="b" d="M359.029,374.48h1.113a.616.616,0,0,0,.615-.615v-.7h.7a.616.616,0,0,0,.615-.615v-1.113a.616.616,0,0,0-.615-.615h-.7v-.7a.616.616,0,0,0-.615-.615h-1.113a.616.616,0,0,0-.615.615v.7h-.7a.616.616,0,0,0-.615.615v1.113a.616.616,0,0,0,.615.615h.7v.7A.616.616,0,0,0,359.029,374.48Zm-1.055-2.2V371.7h.7a.616.616,0,0,0,.615-.615v-.7h.586v.7a.616.616,0,0,0,.615.615h.7v.586h-.7a.616.616,0,0,0-.615.615v.7h-.586v-.7a.616.616,0,0,0-.615-.615Z" transform="translate(-337.151 -347.85)"/><path class="a" d="M44.31,22.412a.439.439,0,0,0,.439-.439V20.507a3.08,3.08,0,0,0-3.076-3.076H40.183V7.242A7.251,7.251,0,0,0,32.941,0h-.955a7.251,7.251,0,0,0-7.242,7.242V17.431h-.326V15.965a1.039,1.039,0,0,0-1.038-1.041h-.267a1.036,1.036,0,0,0-.535.15,1.042,1.042,0,0,0-.983-.7h-.268a1.042,1.042,0,0,0-.761.334l-.024-.025a1.041,1.041,0,0,0-.737-.3h-.264a1.047,1.047,0,0,0-1.037.938,1.045,1.045,0,0,0-.489-.12H17.75a1.047,1.047,0,0,0-1.042,1.043V28.973a1.032,1.032,0,0,0,.3.737.987.987,0,0,0,.7.29H43.725a1.027,1.027,0,0,0,1.025-1.025V24.023a.439.439,0,1,0-.879,0v4.951a.147.147,0,0,1-.146.146H33.912V18.69a6.447,6.447,0,0,0,5.393-3.2v2.376a.439.439,0,0,0,.439.439h1.93a2.2,2.2,0,0,1,2.2,2.2v1.465A.44.44,0,0,0,44.31,22.412ZM31.985.879h.955a6.374,6.374,0,0,1,6.186,4.868,5.837,5.837,0,0,0-4.783-2.494h-3.76A5.837,5.837,0,0,0,25.8,5.747,6.375,6.375,0,0,1,31.985.879Zm-.971,28.242H24.4V27.773a.439.439,0,0,0-.879,0v1.348H17.711a.11.11,0,0,1-.082-.032.16.16,0,0,1-.042-.115V16.238a.168.168,0,0,1,.165-.165h.265a.16.16,0,0,1,.159.161V20.16a.439.439,0,0,0,.439.439h.322a.439.439,0,0,0,.438-.439V15.42a.168.168,0,0,1,.165-.165h.265a.161.161,0,0,1,.159.161v4.741a.44.44,0,0,0,.439.439h.32a.439.439,0,0,0,.438-.439v-4.74a.168.168,0,0,1,.165-.165h.265a.16.16,0,0,1,.159.161v4.741a.439.439,0,0,0,.441.439h.317a.439.439,0,0,0,.438-.439V15.968a.168.168,0,0,1,.165-.165h.265a.16.16,0,0,1,.159.161v5.453a.439.439,0,0,0,.753.308l.686-.7a.525.525,0,0,1,.372-.155h0a.515.515,0,0,1,.367.152.524.524,0,0,1,0,.741L23.645,23.83a.439.439,0,0,0-.129.311v1.582a.439.439,0,0,0,.879,0v-1.4l1.941-1.941a1.4,1.4,0,0,0-1.919-2.037V18.31h.765a.439.439,0,0,0,.439-.439V15.494a6.447,6.447,0,0,0,5.393,3.2V29.121Zm2.018,0H31.893V18.693h1.139ZM39.3,12.25a5.57,5.57,0,0,1-5.564,5.564H31.186a5.57,5.57,0,0,1-5.564-5.564V9.093a4.967,4.967,0,0,1,4.961-4.961h3.76A4.967,4.967,0,0,1,39.3,9.093V12.25Z" transform="translate(-16.708 0)"/></g></svg>